<svg xmlns="http://www.w3.org/2000/svg" width="26.344" height="26" viewBox="0 0 26.344 26">
  <defs>
    <style>
      .cls-1 {
        fill: #008dd2;
        fill-rule: evenodd;
      }
    </style>
  </defs>
  <path id="icon_bullet" class="cls-1" d="M403.354,2577.35l-0.708-.7,13-13,0.707,0.7Zm0-1.7-0.708.7-5-5,0.708-.7ZM391,2574a12,12,0,0,0,24,0c0-.34-0.023-0.68-0.052-1.02,0.332,0.14.674,0.26,1.019,0.37,0.011,0.22.033,0.43,0.033,0.65a13,13,0,1,1-13-13,12.82,12.82,0,0,1,4.033.65c0.018,0.37.049,0.73,0.1,1.09A11.985,11.985,0,0,0,391,2574Z" transform="translate(-390 -2561)"/>
</svg>
